<?xml version="1.0" standalone="no"?>
<!DOCTYPE svg PUBLIC "-//W3C//DTD SVG 1.1//EN" "http://www.w3.org/Graphics/SVG/1.1/DTD/svg11.dtd" >
<svg xmlns="http://www.w3.org/2000/svg">
<metadata></metadata>
<defs>
<font id="dark_crystalscript" horiz-adv-x="1138" >
<font-face units-per-em="2048" ascent="1638" descent="-410" />
<missing-glyph horiz-adv-x="569" />
<glyph horiz-adv-x="2048" />
<glyph horiz-adv-x="2048" />
<glyph unicode="&#xd;" horiz-adv-x="569" />
<glyph unicode=" "  horiz-adv-x="569" />
<glyph unicode="&#x09;" horiz-adv-x="569" />
<glyph unicode="&#xa0;" horiz-adv-x="569" />
<glyph unicode="!" horiz-adv-x="483" d="M70 90q4 -14 16 -34.5t33 -43.5l98 -112q29 -33 51 -33q20 0 51 20l111 113l-2 -2q27 23 39 43t12 37q0 25 -6 32t-22 27l-17 17l-92 110l2 -2q-27 37 -55 43q20 35 49 127q45 139 47 170v2q2 63 6 135t7 144.5t6.5 143.5t7.5 136q2 94 18 312q8 111 11 175t3 87v63 q-59 0 -165 -90q-109 -90 -115 -125q0 -8 1 -43t3 -94q4 -59 6 -120.5t4 -127.5q0 -10 1 -21.5t1 -21.5q4 -51 6 -89t4 -64q0 -8 1.5 -14.5t1.5 -14.5q2 -66 6 -178v-56q4 -57 5 -108t3 -101q4 -111 10 -168t21 -77l-19 -19l-72 -69l3 2q-25 -23 -47.5 -48.5t-32.5 -62.5z " />
<glyph unicode="&#x22;" horiz-adv-x="727" />
<glyph unicode="#" />
<glyph unicode="$" />
<glyph unicode="%" horiz-adv-x="630" />
<glyph unicode="&#x26;" horiz-adv-x="2338" d="M86 504q4 -119 63.5 -221.5t152.5 -179t208 -120.5t229 -44q209 0 434.5 103t466.5 271h-2l60 41q94 -84 189 -182t192 -213l295 102q-16 18 -39 44t-45.5 52.5t-44 50t-35.5 40.5l2 -2q-6 8 -14.5 14t-14.5 12q-66 72 -137.5 146t-130.5 129q137 133 270 285.5 t262 332.5l-409 -106q-55 -117 -122 -215.5t-144 -179.5q-59 47 -113.5 85.5t-97.5 69.5h2q-49 35 -101.5 64.5t-109.5 56.5h2l-297 147q-125 57 -176 121q-20 20 -21 45q0 20 23 43h-2q29 29 63.5 51.5t77.5 38.5q6 2 9 3.5t7 1.5q68 0 199 -148l61 -76l322 90 q-10 14 -41 52.5t-72 81.5t-87 81.5t-85 57.5h2q-127 57 -237 57q-43 0 -89 -8t-100 -31l-243 -94q-137 -63 -156 -221q0 -82 51 -162q10 -16 20.5 -28.5t20.5 -22.5l-65 -21q-86 -33 -167 -81t-143.5 -110.5t-101.5 -139t-41 -164.5zM510 600q0 47 18.5 85t46.5 54 q45 29 123 29q68 0 142.5 -21.5t151.5 -57.5t153 -83t145 -100l41 -33q-55 -45 -116.5 -84t-123 -68.5t-119 -46t-102.5 -16.5h-14l-6 2q-82 10 -145.5 44t-106.5 82t-65.5 103.5t-22.5 110.5z" />
<glyph unicode="'" horiz-adv-x="391" />
<glyph unicode="(" horiz-adv-x="675" />
<glyph unicode=")" horiz-adv-x="681" />
<glyph unicode="*" horiz-adv-x="796" />
<glyph unicode="+" horiz-adv-x="1196" />
<glyph unicode="," horiz-adv-x="481" d="M84 315q18 -10 40.5 -32.5t49.5 -57.5q55 -72 55 -180q-2 -20 -11 -52t-30 -73q-39 -80 -38 -80q-4 -8 -17.5 -29.5t-15.5 -31.5q2 -4 3 -5l1 -1q20 0 63 43q240 266 240 415q0 164 -156 265h-4q-6 2 -36.5 -24t-62.5 -59.5t-57.5 -63.5t-23.5 -34z" />
<glyph unicode="-" horiz-adv-x="1013" d="M66 375l90 4q86 4 153.5 7t116.5 3q31 0 68.5 -1t85 -3t75.5 -2q29 0 39.5 -2t18.5 -2h14h61l170 295l-71 -8q-66 -8 -114 -13.5t-77 -9.5q-59 -4 -147 -6h-119q-51 0 -86 2t-57 8l-41 8z" />
<glyph unicode="." horiz-adv-x="724" d="M186 57q2 -16 45 -57l115 -117q27 -23 33 -22q12 0 41 18l127 111q45 33 45 51q0 10 -7 17.5t-34 31.5l-109 115q-31 33 -47 33q-14 0 -49 -29l-84 -74q-27 -20 -50.5 -40.5t-25.5 -37.5z" />
<glyph unicode="/" horiz-adv-x="569" />
<glyph unicode="0" horiz-adv-x="1386" d="M82 788q0 -592 450 -770q59 -25 113.5 -35t104.5 -10q25 0 46 5.5t38 15.5q27 4 66.5 19t94.5 42q86 45 151.5 93.5t108.5 105.5q92 115 136 313q10 53 16 111.5t6 126.5q0 61 -6 126.5t-21 135.5q-31 166 -86 252v-2q-43 78 -167 137q-180 88 -461 88q-31 0 -62.5 -2 t-66.5 -6q-47 -49 -123 -98l-3 -2t-5 -2q-16 -10 -45 -28t-74 -42q-113 -63 -158 -176q-29 -84 -47 -230q-6 -80 -6 -168zM473 881q0 207 33 260q37 66 192 65q229 0 306 -119q59 -93 59 -374q0 -160 -49 -283q-57 -139 -168 -139q-166 0 -297 198q-76 115 -76 392z" />
<glyph unicode="1" horiz-adv-x="649" d="M-4 1284q111 18 141 19q139 0 139 -76q0 -57 7 -170q6 -111 6 -166q0 -754 -156 -983h103q143 0 233 76q82 68 215 67h117q-143 123 -144 193q0 45 -3 111.5t-7 156.5q-6 178 -6 260q0 37 1 88t3 121q4 66 6 119t2 86l11 198v-4l20 140l-471 -60q-29 0 -65.5 2t-63.5 4z " />
<glyph unicode="2" horiz-adv-x="1214" d="M35 -68q131 82 473 82q43 0 195.5 -11t416.5 -34q63 127 118.5 229.5t104.5 182.5l-55 51l-8 -6q-158 -154 -424 -154q-68 0 -140.5 9.5t-150.5 25.5q123 80 202 134.5t120 88.5v-2q246 199 246 406q0 10 1 25.5t3 33.5q2 23 4 43.5t2 32.5q0 270 -154 379h2 q-176 127 -385 127q-102 0 -227 -32t-279 -93q43 -160 65.5 -261.5t22.5 -141.5q0 -18 -4 -31l66 -29q113 182 377 225q16 4 28 5h23q184 0 184 -277q0 -207 -250 -383h2q-156 -109 -469 -246q-14 -43 -31.5 -99t-32.5 -110.5t-27.5 -100.5t-18.5 -69z" />
<glyph unicode="3" horiz-adv-x="1056" d="M8 506q98 47 179 67.5t149 20.5q174 0 276 -55q115 -55 115 -168q0 -336 -690 -359l-12 -71q68 -25 141.5 -69t159.5 -110q176 123 319 220.5t238 154.5q204 147 204 340q0 299 -331 373q100 63 153 125q94 111 95 272q0 365 -537 365q-264 0 -399 -135q4 -63 7 -124 t3 -104v-20t-2 -31.5t-4 -57.5t-9 -96q78 104 125.5 164t65.5 76q25 25 149 25q127 0 228 -39q106 -39 106 -111q0 -131 -162 -219q-156 -84 -374 -84q-14 -49 -60.5 -137t-132.5 -213z" />
<glyph unicode="4" horiz-adv-x="1554" d="M23 432l10 -145q127 63 432 63q92 0 195.5 -5t222.5 -15q-2 -20 -2 -49v-64q0 -53 -1 -131t-1 -162l63 -18q49 92 326 153q-18 117 -19 283l209 8l201 336l-164 10q0 -49 -14 -55q-31 -12 -236 -12v20q0 63 3 160.5t9.5 221.5t14.5 270.5t18 310.5q-102 -25 -182 -38 t-141 -13q-20 0 -88 12q-348 -686 -856 -1141zM596 606q29 37 65.5 93.5t86.5 134.5q35 55 68.5 108t68.5 109q4 -68 4 -127v-107q0 -72 -2 -125t-6 -88q-49 -6 -113 -6q-37 0 -80 2t-92 6z" />
<glyph unicode="5" horiz-adv-x="1062" d="M66 332l516 -363q39 0 204 105h-2q162 100 295 229q139 139 140 277q0 207 -213 346q-207 135 -433 135q-51 0 -96 10q-6 0 -10 -10q4 10 8 24.5t14 32.5q16 39 27 58h467q16 -2 31 -2h35q63 0 110 65q20 29 39 85t35 142v80q-39 -10 -92.5 -17t-120.5 -7h-37h-39t-76 -2 h2q-23 0 -42 -1t-37 -1h-46t-40 -2h2q-35 0 -70 -1.5t-64.5 -2.5t-52.5 -1h-28q-59 0 -101 -114v2q-16 -45 -28.5 -88t-22.5 -78q-8 -29 -19.5 -66t-27.5 -86q-14 -37 -25 -75q-23 -72 -41 -118t-28 -67v-88q362 0 532 -92v2q154 -90 154 -172q0 -47 -35 -111 q-18 -27 -40 -48t-50 -33l-418 278q-29 -12 -64.5 -36.5t-82.5 -61.5q-47 -35 -79 -68t-50 -59z" />
<glyph unicode="6" horiz-adv-x="1247" d="M74 776q0 -119 29.5 -221t93.5 -190q123 -170 262 -264.5t176 -94.5q49 0 137 57q45 29 87 55.5t83 55.5h-2q119 68 227 201q119 137 119 305q0 166 -106 278q-49 53 -102.5 93.5t-114.5 68.5h2q-119 57 -142 58q-41 0 -202 -111q-39 -27 -69 -45t-52 -33q4 12 6 21 q4 10 9 21t9 24l-2 -2q12 31 39 68.5t68 86.5q80 92 186 158q55 35 112.5 66.5t98.5 54.5q0 115 -82 115q-88 0 -297 -105q-98 -47 -158.5 -79t-82.5 -48q-27 -18 -51.5 -37.5t-47.5 -40.5q-27 -27 -58.5 -57.5t-62.5 -63.5q-39 -59 -62.5 -111t-33.5 -99q-10 -43 -13 -88.5 t-3 -96.5zM469 782q2 -6 63 23q82 37 136 37q90 0 182 -94q88 -90 88 -230q0 -41 -49 -133q-45 -78 -78 -78q-39 0 -190 156q-152 158 -152 319z" />
<glyph unicode="7" horiz-adv-x="1167" d="M90 1065h78q18 12 44 28.5t46 28.5q20 14 38.5 26.5t39.5 27.5l-6 -2q92 43 231 43q37 0 141 6q53 2 84 3t41 1q6 0 11.5 -1t15.5 -1l-741 -1129v-80h307q31 20 71.5 82t92.5 162q47 98 100 198.5t112.5 205t105.5 187.5t79 142q31 61 65.5 129t71.5 142q35 72 62.5 124 t46.5 87l4 20q0 76 -90 76q-31 0 -70 -12h-659q-221 0 -252 -168q-23 -131 -70 -215v-111z" />
<glyph unicode="8" horiz-adv-x="1302" d="M49 471q0 -96 84 -162q37 -29 105.5 -77t169.5 -113q217 -139 278 -139q66 0 186 79q55 35 109.5 72t112.5 76q57 37 100 72.5t76 68.5q33 39 50 74t17 70q0 100 -114 200q-41 33 -88.5 69t-104.5 75q41 33 81 63.5t79 63.5q106 96 106 163q0 76 -88 162q-41 31 -82 60.5 t-82 58.5l3 -2q-41 29 -87.5 60.5t-99.5 66.5q-109 76 -174 76q-61 0 -168 -76q-47 -35 -96 -67.5t-96 -67.5q-12 -10 -23.5 -18.5t-21.5 -14.5q-86 -61 -143.5 -115.5t-57.5 -122.5q0 -90 162 -208q51 -33 88 -60t61 -47l-203 -139q-139 -100 -139 -201zM436 565q0 4 62 64 q57 59 69 59q-4 0 16.5 -14.5t59.5 -42.5q45 -33 80 -58.5t57 -40.5q27 -16 54.5 -35.5t60.5 -45.5q55 -42 55 -62q0 -12 -57 -55q-27 -20 -42 -30.5t-20 -14.5l-221 135q-72 41 -127 90q-47 41 -47 51zM467 1217l11 14t36 43q45 49 53 49q16 0 70 -45q39 -33 66.5 -55.5 t48.5 -32.5q23 -14 52.5 -33.5t63.5 -48.5l-2 2q62 -54 62 -68q0 8 -21 -22l-4 -4q-14 -16 -27.5 -30.5t-29.5 -31.5q-35 23 -90.5 61t-126.5 91q-162 113 -162 111z" />
<glyph unicode="9" horiz-adv-x="1224" d="M39 920q0 -164 104 -279q49 -53 103.5 -93t113.5 -69h-2q121 -57 142 -57q41 0 202 108q37 25 68 44.5t53 33.5l-6 -18q-4 -10 -8 -21.5t-8 -23.5l2 2q-27 -55 -111 -156q-41 -47 -86 -86t-98 -72q-53 -35 -111.5 -66.5t-99.5 -53.5q0 -115 82 -115q88 0 299 102 q193 96 242 129q43 31 96 78q23 23 46 46.5t52 49.5l23 25q39 57 61.5 109.5t32.5 99.5t15 93t5 93q0 236 -123 412q-61 84 -126.5 149.5t-137.5 112.5q-135 96 -176 96q-47 0 -137 -57h2q-45 -29 -88 -55.5t-86 -55.5h2q-59 -35 -115.5 -85t-109.5 -115 q-117 -135 -117 -305zM385 1081q0 45 49 131q45 80 78 80q37 0 193 -155q145 -158 149 -320q-8 5 -63 -22q-80 -37 -136 -37q-90 0 -182 94q-88 90 -88 229z" />
<glyph unicode=":" horiz-adv-x="5576" d="M68 1008q-43 94 28 149q37 29 74 52.5t72 45.5q37 23 59.5 37.5t30.5 18.5h16l-33 -64l-10 -18l-4 -10l12 -23l121 -2l17 -4l-2 22l-5 25l-4 16l4 11q147 -39 248 -193q-199 20 -268 -61q-106 -190 -16 -410h-218q106 340 -20 395l82 70l-125 8q-53 -31 -21 -88 q-18 7 -38 23zM416 600q182 368 69 442h113h176q-164 -139 -129 -208q94 55 209 38l-23 166h236q-172 -180 6 -438l-338 -2l-18 4l37 47q115 190 28 170q-236 -55 -77 -219q-53 6 -289 0zM1022 803q-41 180 248 274q-41 78 -160 84q221 59 328 -155l-31 -9 q-61 -8 -108.5 -25.5t-79 -37t-47 -37.5t-15.5 -31q106 -18 207 45l39 -123q-100 31 -193 -30l-12 -8q45 -61 139 -76q63 -6 131 22q125 70 189 211q-8 -168 -172 -272q-162 -100 -293 -55q-129 47 -170 223zM1040 1096q-137 567 666 633l825 -37l-94 -84q371 -184 465 -629 q90 -627 -551 -813q-61 -12 -158 -12h-507q57 37 153 424q96 391 -47 909l63 -33l27 -20l41 -27l64 -37q10 -4 24 -13t35 -24l158 -96l20 -14q-37 -14 -61 -60q-12 -31 -43 -745q-6 -20 6 -53q745 139 416 735q-160 281 -596 370l-23 7l-20 4l-21 6l-22 6l-21 4l-117 16h-36 l-17 5h-31q-20 -2 -53 0l-164 -25l-57 -23l-39 -20l-25 -16q-14 -8 -26 -15.5t-27 -15.5q-43 -37 -94 -107l-53 -90l-27 -86l-10 -47v-14zM2974 805q33 174 282 307q35 35 62 82q6 74 -70 123q307 -90 557 -19q-197 -315 -45 -790h-375l41 49l33 84l-51 35l-301 141 q-49 -129 49 -244q100 -88 207 54q-18 -197 -240 -164q-84 4 -133 86q-47 84 -16 256zM3256 973l236 -80q4 35 -19 199l-8 4zM3820 489l106 164l4 543v12l-14 25q-31 35 -41 57l24 -4l27 -4l20 -2h29q4 -4 17 -4h22l29 -4l20 -4q39 4 68 -4h135l29 4l32 4h25l43 10h12l35 12 l25 13l8 8h29q92 -53 135 -162q0 -166 -164 -281q-10 -72 47 -30q-10 -283 219 -451q229 -166 658 -98l4 -12q-639 -229 -1049 299q-23 18 -68 43l-34 14q-72 12 -58 -51q4 -53 54 -97h-428zM4139 887l4 -13q106 63 184 199l-4 27q-72 39 -172 30zM4624 1343h316 q-88 -197 -35 -442q201 98 258 340h250q-20 -35 -68 -76l-231 -227l-62 -49l103 31h12q-8 -41 4 -103l41 -84q287 -510 848 -385q-467 -322 -1098 359l-35 34l23 -110l8 -33l4 -25l4 -18l11 -27l4 -22q-129 -68 -303 -4l16 96q6 39 6 74q4 20 4 43l-4 356q0 37 -8 72l-6 26 l-43 134l-10 14z" />
<glyph unicode=";" horiz-adv-x="6139" d="M31 1276q121 135 248 186q63 57 176 92q213 27 405 -124l76 73l14 10q223 -410 -112 -727q0 737 -349 537q-33 -37 -59 -86q-106 -471 205 -909l113 -103l26 -18l8 -10l109 -66v78l-68 221l289 -27l-53 -204l8 -142q254 -133 528 -178q922 -219 1123 522q6 -68 -113 -342 q-121 -279 -729 -489l2 4q27 14 45 18q4 2 8 4.5t11 6.5l112 69q27 10 41 27l33 18l26 25q-365 -94 -1064 84h-19l23 -154l22 -94h-278l14 41l31 66l4 200q-961 315 -776 1366q14 33 36 62q-29 0 -116 -37zM1053 543l106 166l4 557v12l-14 22q-31 37 -41 62l25 -4l26 -4 l21 -4h28q4 -4 17 -4h22l29 -5l20 -4q16 2 33 1t35 -5h135l29 4l33 4h22l45 13h12l35 12l25 10l8 8h29q92 -53 135 -163q0 -172 -164 -287q-8 -74 47 -33q-10 -291 219 -459q233 -170 658 -100l4 -12q-639 -236 -1049 303q-18 18 -67 45l-35 14q-72 12 -58 -51 q2 -53 54 -100zM1372 944l4 -10q106 68 185 203l-5 28q-72 39 -172 31zM1862 1346l458 -13q-238 -184 -79 -332h40q125 125 93 381h415q-94 -125 -171.5 -228t-141.5 -185q-125 -162 -10 -410l-516 16l20 29l10 8q147 96 187 260l-41 58q-14 31 -39 61l-88 139 q-31 41 -41 64l-12 18l-15 17q-6 14 -15 30.5t-24 32.5zM2654 565q-33 205 168 314q82 -242 295 -189q31 12 16 39l-49 43l-8 4l-24 23l-27 22q-10 2 -31 25l-59 57l-13 8l-86 84q-16 14 -36 43l-21 33q-29 86 -8 174q49 179 344 148q-8 29 -35 71q199 -76 160 -366 q-166 199 -264 141q-14 -20 -17 -45l17 -29l90 -57l211 -143q94 -102 61 -258q-39 -147 -217 -185q-137 -51 -270 53q-98 74 -197 -10zM3289 1225q4 35 10 72.5t13 78.5h391q125 -2 217 -3t151 -1l21 -207q-164 29 -260 -84q-141 -256 -23 -546h-327q145 455 -29 528l113 94 l-170 10q-115 -12 -107 58zM3914 811q35 195 293 338q18 16 33.5 38.5t29.5 49.5q6 84 -72 137q317 -98 580 -20q-205 -346 -45 -873h-391l43 56l35 94l-56 35l-313 157q-53 -141 49 -268q106 -98 217 57q-18 -215 -248 -182q-86 6 -139 96q-49 94 -16 285zM4221 963 l244 -82q4 36 -19 206l-8 5zM4743 332q205 217 174 934l-49 143h397q-25 -29 -84 -143l-30 -478l4 -16l4 -168l4 -14v-33q25 -4 178 -18q156 -12 195 -13l22 6q-57 104 -172 150q676 -90 703 -702q-82 143 -271 266q-37 27 -73 41q-485 98 -1002 45z" />
<glyph unicode="&#x3c;" horiz-adv-x="1196" />
<glyph unicode="=" horiz-adv-x="1196" />
<glyph unicode="&#x3e;" horiz-adv-x="1196" />
<glyph unicode="?" horiz-adv-x="1062" d="M84 1200q6 -133 92 -258q49 -72 109.5 -124t113.5 -62q16 0 37 7t43 25q20 14 44 32t55 40l-3 -2q4 4 11.5 9t11.5 10q18 16 49 34.5t90 49.5q-199 72 -274 184l2 -2q-74 106 -80 239q0 33 10.5 66t27.5 59.5t43 42t60 15.5h9q57 0 122.5 -32t119.5 -83t90 -113.5 t36 -126.5v-6q0 -115 -45 -236.5t-129 -265.5l-258 -458q88 35 143 68.5t86 62.5q41 35 70 68.5t72 97.5l276 413q55 86 89 186.5t34 182.5q-16 111 -73.5 204t-132 161.5t-156.5 107.5t-146 39q-66 0 -112 -20.5t-97 -65.5l2 2l-266 -215q-170 -137 -176 -336zM424 131 q0 -18 10 -37.5t31 -50.5l84 -111l-2 2q33 -53 78 -59q27 8 44 16.5t29 22.5l125 94l-2 -2q49 31 49 72q0 29 -36 76l-78 114q-23 31 -41.5 43.5t-42.5 12.5q-14 0 -28.5 -7.5t-37.5 -23.5l-123 -96q-23 -18 -39 -39t-20 -27z" />
<glyph unicode="@" horiz-adv-x="2078" />
<glyph unicode="A" horiz-adv-x="1548" d="M49 -82q-30 61 -30 153q0 143 75 363q123 358 608 694l39 -98l-14 115q57 53 100 147q1 11 1 21q0 125 -113 209q283 -94 489 -94q154 0 264 53q-140 -303 -140 -688q0 -353 118 -773h-510l68 95l53 155l-86 62l-486 264q-223 -308 -223 -505q0 -94 51 -163 q29 -24 64 -23q130 0 352 310q-101 -499 -402 -499q-31 0 -65 5q-137 37 -213 197zM678 817l432 -170q1 12 1 32q1 41 -5 111q-8 104 -29 279l-14 10z" />
<glyph unicode="B" horiz-adv-x="1449" d="M8 1059q3 24 23 67q59 385 520 410h741l37 -4q55 -10 105 -55v-88l-50 -74l-10 -10l-323 -428q340 -130 340 -387q0 -143 -105 -324q-55 -80 -164 -123q-34 -8 -74 -10q-20 -1 -43 -1t-49 1l-579 -4l-29 -6h-121l-49 -5q194 400 194 819q0 134 -20 271l-100 -8l252 200 q-240 -23 -496 -241zM670 274q71 -15 132 -15q180 0 285 124q18 44 18 80q0 155 -343 155q-35 0 -74 -2l-18 -8v-334zM688 901l4 -27q14 16 58.5 63.5t119.5 125.5q150 156 166 201q-18 61 -94 63l-143 -4l-21 -4h-69l-21 -6v-412z" />
<glyph unicode="C" horiz-adv-x="1048" d="M23 1276q120 135 247 186q68 57 176 92q32 4 64 4q178 0 342 -128l76 73l14 10q89 -164 89 -312q0 -224 -202 -415q0 580 -215 580q-58 0 -133 -43q-29 -31 -57 -86q-28 -122 -29 -242q0 -343 232 -667l112 -103l27 -18l8 -10l109 -66v78l-68 221l289 -27l-53 -204 l8 -142q254 -131 432 -166l12 -47l33 35q222 -50 404 -49q615 0 770 571v-7q0 -74 -113 -335q-121 -279 -729 -489l4 4q29 16 45 18q4 4 16 11l115 69q25 10 41 27l31 18l26 25q-126 -32 -292 -32q-315 0 -773 116h-16l20 -154l25 -94h-281l15 41l30 66l5 200 q-807 264 -807 1047q0 150 30 319q14 33 37 62q-29 0 -116 -37z" />
<glyph unicode="D" horiz-adv-x="1947" d="M47 956q-19 80 -19 150q0 416 687 469l823 -37l-94 -82q371 -180 465 -612q11 -74 10 -141q0 -489 -559 -654q-33 -4 -73 -7t-87 -3h-508q61 39 107 108l43 105v14q25 70 37 772l-13 88l-4 31l-63 180l63 -30l27 -21l43 -26l61 -35q25 -10 60 -37l157 -92l23 -17 q-39 -14 -64 -55q-46 -267 -46 -531q0 -124 10 -247q516 91 516 399q0 137 -101 316q-160 276 -596 362l-20 4l-23 4l-20 6l-23 6l-20 5l-117 16h-37l-14 4h-33q-20 -2 -51 0l-166 -25l-57 -20l-37 -23l-27 -14q-14 -8 -26.5 -15t-26.5 -16q-20 -18 -44 -43.5t-50 -58.5 l-54 -88l-26 -84l-10 -45v-16z" />
<glyph unicode="E" horiz-adv-x="1540" d="M-121 1485h557l35 -6l959 -4q14 -33 24 -82l37 -101v-14l14 -35l4 -20l56 -197l-35 27l-39 24q-12 2 -41 21l-166 65l-41 11q-14 4 -32.5 8t-41.5 6l-24 10q-10 0 -22.5 1t-28.5 3l-246 10l-25 7l-155 10q-39 0 -80 8l-56 6l-24 4q-18 0 -38.5 3t-43.5 7l-25 7l-34 4 l-125 30l-27 5l-115 40l-18 5l-127 65l-25 21l-34 24zM418 592v133l4 16v86l4 15v45l6 14q0 31 3 55.5t7 44.5q0 27 3.5 58t7.5 69v35q4 4 4 39l110 -53q25 -20 66 -37l55 -31l25 -10l20 -14l70 -35v-150q6 -16 6 -41v-51l53 -4l35 -6l37 -4l41 -4l49 -10h20q27 -10 66 -11 l43 -6l45 -4l27 -6l28 -4l-135 -70q-16 -6 -39 -20q-16 -2 -45 -21q-10 -2 -69 -28q-57 -27 -103 -52l-24 -10q-14 -2 -39 -18l-11 -6l39 -101l17 -30l24 -35q212 -232 520 -232q130 0 277 41l-18 -24q-10 -8 -32 -21.5t-54 -30.5l-11 -10l-41 -14l-14 -10 q-194 -68 -411 -68q-115 0 -236 19l-115 38q-14 6 -41 21l-14 4l-41 27q-31 18 -66 59l-18 21q-16 27 -31 40l-76 181l-14 73q-6 31 -6 52l-4 20v55z" />
<glyph unicode="F" horiz-adv-x="1302" d="M20 1221l293 286l25 21q143 -38 330 -38q293 0 698 93l-92 -555l-92 133l-76 68l-434 20l-25 -10l-8 -240q98 -41 215 -135l10 58l8 67l17 49l149 -424v-65l-82 47q-45 29 -102 47l-14 10l-209 58v-459q12 -125 135 -250h-563q29 20 58.5 48t57.5 67v571v492l166 112 l-247 -39z" />
<glyph unicode="G" horiz-adv-x="1470" d="M-59 -268q203 215 665 329q-492 254 -547 842q-9 69 -9 133q0 417 390 561q33 4 65 4q182 0 349 -128l51 51q10 10 20.5 16t20.5 10q92 -158 92 -303q0 -218 -207 -407q-10 219 -18 256l-8 73l-10 25v12l-33 92l-23 41q-14 25 -51 52l-8 8q-29 15 -69 15q-9 0 -19 -1 q-90 -18 -170 -92q-36 -140 -36 -274q0 -393 308 -732l27 -18q20 -20 51 -37l19 -14l77 -45l29 -15l53 -22q73 174 73 268q0 110 -100 110q-9 0 -18 -1q-46 9 -96 9q-81 0 -170 -24l-51 -10l84 133l8 10l37 60l8 10h750q-325 -142 -325 -560q0 -42 3 -87l152 -51 q14 -4 116.5 -29t296.5 -68q178 -53 329 -53q499 0 699 576q1 -13 1 -27q0 -50 -17 -111v-14q-201 -508 -842 -670l74 37q31 10 74 41l96 60q35 26 35 30q0 1 -2 1q-6 0 -47 -21l-41 -10q-29 -8 -78 -15q-10 -2 -19.5 -3t-13.5 -1h-203l-37 4l-133 15l-8 4h-18l-299 65 q-23 0 -41 8q-158 45 -243 70t-101 33l-56 8h-43q-303 -6 -843 -229z" />
<glyph unicode="H" horiz-adv-x="1204" d="M43 1532h473q-61 -39 -106 -121q-18 -59 -19 -139v-510l6 -14q168 150 422 208q-3 41 -3 79q0 458 392 472q-16 -2 -37 -16q-14 -35 -23 -74t-13 -94v-14l-5 -52l-6 -26l21 -1100l4 -27l4 -14q8 -10 13 -25.5t10 -33.5h-488l21 12l22 20l8 5q57 55 80 139v500 q-219 -45 -409 -230q4 -18 8 -42.5t6 -57.5q4 -14 13 -46t20 -79l10 -33q106 -451 557 -649q-229 10 -451 133q-492 320 -492 1040q0 96 9 199v424q-4 31 -18 74q-3 24 -19 59q-10 25 -10 33z" />
<glyph unicode="I" horiz-adv-x="626" d="M31 1384l121 138h409l-39 -125l-22 -72l2 -1180l82 -114h-527l88 104l23 35v1104z" />
<glyph unicode="J" horiz-adv-x="1366" d="M41 360q98 219 348 330l-125 -272v-35l105 -76l26 -14q133 -96 233 -96q113 0 185 122l27 58l14 37l10 24q70 752 74 815l6 17l-10 10q-130 24 -267 24q-287 0 -606 -108q23 37 304 320l16 20h156l41 -4h219l16 -6h205q20 -3 46 -3t56 3h47l33 -6h78l10 -4h41 q0 -25 -14 -54q-134 -301 -134 -523q0 -121 40 -218q57 -139 89.5 -215t41.5 -92q-231 -111 -394 -346l-67 -58q-117 -53 -255 -53q-48 0 -99 6q-313 6 -492 309z" />
<glyph unicode="K" horiz-adv-x="1396" d="M-39 1276q47 16 86 26.5t68 14.5l39 4l96 4l8 -8q83 -223 83 -537q0 -321 -87 -737h494v18l-9 31v14l-45 246v17l-12 55l-6 29l-8 59q182 -651 800 -666q57 -1 112 -1q539 0 833 143l-29 -6q-274 -37 -492 -36q-256 0 -436 50q-336 94 -377 416q-20 162 -26 260 q-4 59 -4 96q0 25 2 39h-21l-51 -19q-53 -10 -86 -24l733 792q-8 -4 -18.5 -10t-24.5 -10l-889 -444q119 -66 117 -191l-182 -123l-6 10l-5 29q-2 229 -3 353t-1 141l33 125q10 20 18.5 34.5t16.5 24.5l18 31q-101 16 -191 16q-370 0 -548 -266z" />
<glyph unicode="L" horiz-adv-x="1265" d="M-55 1026q170 471 504 545h106q27 -16 203 -209q-199 0 -197 -193l-137 -32l141 -29v-629q-2 -32 -2 -60q0 -221 155 -221q23 0 48 5q221 42 221 307v14l-166 -127q10 29 27.5 59.5t44.5 63.5l8 21l23 24l49 51q37 22 76 22q111 0 243 -179q-103 -60 -103 -170 q0 -36 11 -78l-520 -336q-170 183 -402 183q-108 0 -229 -40q170 131 211 371q19 201 19 355q0 348 -95 466z" />
<glyph unicode="M" horiz-adv-x="2045" d="M59 57q177 -350 546 -350q49 0 102 6h165q4 0 13.5 1t23.5 3l74 13q41 10 59 10q37 10 54 10h-17q-487 0 -706 344l-6 12q-31 68 -37 127q6 371 131 539q63 88 101 143.5t54.5 78t33 43t32.5 36.5q18 4 35 4q28 0 53 -10q134 -216 134 -497q0 -194 -64 -420l-58 -123 q35 4 65 7t52 3l31 6h379l-76 47l6 21v352l-76 47l70 20l-4 17q-27 180 -40 277.5t-13 115.5q85 200 202 200q84 0 186 -106q100 -105 101 -282q0 -250 -199 -646l-123 -59l568 -8q-82 61 -88 94q199 506 199 814q0 481 -485 481q-144 0 -331 -42q-106 -37 -170 -106 q-111 174 -286 246h-340q-27 -4 -49 -9.5t-42 -13.5l250 -180q-25 -16 -43 -30.5t-30 -26.5q-462 -414 -462 -952q0 -125 25 -257z" />
<glyph unicode="N" horiz-adv-x="1689" d="M-129 983l14 51q223 330 643 500h107q12 -8 24.5 -17.5t24.5 -23.5l16 -10l80 -92q18 -18 45 -56l11 -10l-31 4q-49 -29 -125 -49l-16 -10v-41q10 -39 67 -174t533 -774q164 286 164 639q0 139 -25 288q-16 33 -45 62q-70 37 -167 37q-21 0 -44 -2l-10 6q97 112 244 112 q33 0 69 -6q233 -76 232 -469q0 -340 -173 -917h-362l-39 51l-31 47l-14 18l-33 37q-10 12 -20.5 27.5t-24.5 34.5l-270 360q-8 10 -15.5 21.5t-15.5 25.5l-25 29l-24 33v-185q2 -12 3 -27.5t1 -33.5l4 -10v-35l6 -10v-21l4 -20l11 -58l6 -18l14 -37l41 -51l14 -21 q47 -41 131 -86l21 -16q45 -16 94 -55h-782q47 57 73 112l25 56q20 37 37 92l4 10v571q2 13 2 30q0 28 -6 67q0 55 -21 123l142 116l10 11q-16 -4 -34.5 -8.5t-41.5 -8.5l-51 -14l-35 -4q-6 -6 -18.5 -9.5t-22.5 -3.5q-27 -4 -53 -18q-16 -4 -32.5 -8t-33.5 -12 q-29 -6 -36 -13q-25 -14 -66 -24l-14 -11q-31 -10 -69 -32.5t-83 -63.5z" />
<glyph unicode="O" horiz-adv-x="1509" d="M-80 1159l25 4l20 6l21 5l18 10l72 14l24 12l80 15l17 6l194 35l-24 -31l-29 -51q-8 -12 -13.5 -19.5t-7.5 -11.5l-24 -39l-10 -10l-97 -166q-25 -35 -38 -62.5t-17 -41.5l-14 -25l-27 -61q-16 -33 -28.5 -62t-16.5 -53l-4 -10l-27 -97l6 -120l17 -29l74 -78 q12 -14 22 -22.5t19 -12.5l24 -18q20 -27 62 -45q287 -205 562 -205q253 0 496 174l31 25l21 20q20 16 34.5 29.5t24.5 25.5l49 49l21 31q10 39 14 73t2 62v35l-16 78l-35 129q-14 25 -21 55l-18 52q-8 12 -10 20l-7 18q-14 35 -20 41l-90 191q-16 33 -31 55l-4 15l-24 40 q-16 41 -35 62l14 4l31 -4q35 -10 49 -10l55 -17l21 -4l55 -14l235 -96q-385 440 -898 441q-50 0 -101 -5q-453 -103 -723 -412zM356 537l6 75l25 80q8 10 12 20.5t9 18.5l14 41l14 31l103 176l10 8l8 23l27 34q23 39 59 70q27 14 50.5 24.5t45.5 14.5q11 1 22 1 q97 0 169 -50l10 -10l31 -45l4 -15l20 -30l4 -17l17 -29l69 -155q66 -130 66 -274v-17q-74 -111 -166 -168q-122 -58 -230 -58q-227 0 -399 251z" />
<glyph unicode="P" horiz-adv-x="1929" d="M55 1190q14 100 82 201q182 200 589 201q229 0 529 -64h29l25 -4l63 -4l64 -7l53 -4l33 -6l43 -4l49 -4q-25 -25 -68 -43l-57 -33q205 -78 338 -276q36 -104 36 -192q0 -409 -786 -441l-10 -264l4 -51l14 -52v-14l45 -72l15 -18l-559 4q33 23 57 68l8 8q10 16 18.5 37.5 t16.5 48.5l53 403q-25 23 -57 25l-4 8l61 43q0 12 3 55t12 117q2 18 2 39q0 149 -88 426q-47 7 -90 7q-236 0 -392 -195q-18 -43 -18 -101l-6 -8l-4 -51v-15q-104 119 -104 210q0 11 1 22zM891 1280l24 -16l148 -101q45 -31 80 -55l61 -41q-20 -2 -37 -23l-24 -69l-37 -221 q373 41 434 194q6 14 6 28q0 139 -569 279z" />
<glyph unicode="Q" horiz-adv-x="1771" d="M-395 379l20 8q-8 -8 -20 -8zM-360 387q185 300 543 300q48 0 98 -5q18 27 34 82q2 8 7.5 17.5t13.5 23.5l31 69q8 10 14 24.5t14 33.5l33 55q4 4 8 21l51 86q25 29 52 80l10 16q10 10 20.5 25.5t20.5 35.5l41 56q-10 1 -21 1q-42 0 -96 -18l-27 -4l-268 -65l-20 -7 l-45 -14q281 322 735 422q49 4 98 4q523 0 918 -446q-47 14 -127 55q-10 4 -22.5 8t-29.5 8l-16 4q-29 16 -73 28.5t-109 23.5q-4 6 -21 6l-59 14l-16 -4l34 -57q4 -8 9.5 -17.5t13.5 -23.5l8 -15l16 -36l15 -29l12 -17q6 -6 8 -18q27 -49 46.5 -93t35.5 -85l-94 -62l115 11 l20 -41l15 -41l6 -21l28 -110q4 -14 8.5 -29.5t8.5 -32.5l6 -14l4 -143q-10 -27 -10 -46q-258 -365 -748 -380v-52q10 -10 25.5 -20t36.5 -21l10 -10l102 -49l62 -21q159 -66 307 -66q306 0 569 279q-205 -464 -613 -464q-166 0 -366 77l-55 31l-31 17q-18 8 -55 34l-78 52 l-8 10l-47 35l-25 20l-55 55q-23 31 -61 68q-297 423 -779 423q-136 0 -288 -34zM600 627q-2 -9 -2 -19q0 -27 12 -63l76 -76l14 -10q20 -27 62 -45l55 -35l-8 90v14q-6 31 -6 72l-10 66q-6 31 -7 47l-10 51l-4 24q18 4 41 8.5t49 6.5l12 6q29 2 51.5 3t39.5 1h47 q35 -4 65 -41l-71 -348q6 -23 -7 -51q13 -1 26 -1q143 0 269 101q47 37 97 96l6 11q-1 325 -234 624q-68 41 -161 41h-17q-35 -6 -65 -26l-25 -11q-37 -25 -68 -76l-41 -61l-14 -18q-8 -16 -17.5 -33t-23.5 -35l-14 -35l-92 -186l-21 -82z" />
<glyph unicode="R" horiz-adv-x="1990" d="M-180 1176h35q534 157 915 157q327 0 541 -116q63 -45 88 -107q-31 -90 -99 -129l-61 -37l-12 -4q-14 -8 -23.5 -13t-17.5 -7l-154 -62q-35 -14 -62.5 -20.5t-49.5 -8.5q0 -76 24 -137q451 -864 1370 -864q78 0 160 6q-981 411 -981 776q0 50 18 99l-10 4q-22 -2 -42 -2 q-92 0 -154 37l10 10q326 205 375 258q22 79 22 151q0 121 -61 226l-35 34l-98 62l-21 4q-35 16 -62.5 26.5t-50.5 14.5q-8 0 -18 1t-23 3l-18 6l-29 4q-249 38 -462 39q-698 -1 -1014 -411zM461 39h581l-10 20l-53 88q-70 262 -70 505q0 316 119 599l-8 11q-16 4 -34.5 6 t-41.5 4h-158l-18 -4l-227 -13v-14l10 -37l29 -88v-870q0 -23 -1 -44.5t-4 -39.5q-45 -82 -114 -123z" />
<glyph unicode="S" horiz-adv-x="1419" d="M41 92q-9 51 -9 98q0 284 339 441q142 -361 508 -361q56 0 118 9q58 37 58 75q0 37 -54 74l-458 297l43 131l-84 -96l-107 69q-16 14 -33.5 32t-37.5 40l-39 62q-33 82 -33 170q0 61 16 124q81 259 514 259q73 0 156 -7q-16 53 -66 125q324 -110 324 -466q0 -75 -14 -162 q-301 267 -457 267q-17 0 -33 -3q-119 -25 -119 -124q0 -29 11 -65l176 -100l414 -244q212 -107 213 -302q0 -47 -13 -99q-80 -250 -422 -318q-87 -28 -173 -28q-180 0 -355 123q-89 58 -177 58q-104 0 -206 -79z" />
<glyph unicode="T" horiz-adv-x="1150" d="M-80 1290q293 265 739 265q24 0 48 -1l-33 -147l-6 -21l-15 -51q-6 -22 0 -30q182 201 475 276q45 6 88 6q262 0 461 -215v-16l-329 -250q-27 -27 -39 -29l49 217q-23 27 -53 37q-28 4 -58 4q-76 0 -162 -26q-141 -127 -184 -316q-35 -126 -35 -248q0 -231 127 -446 q25 -35 82 -74q-37 -10 -88 -10q-31 -8 -72 -37q-176 -231 -486 -231q-31 0 -62 2q-10 2 -39 16q197 207 237 524q26 93 26 183q0 225 -165 428q10 20 33 37l45 37l4 10l14 12l15 25q2 20 0 55q-29 29 -75 44t-120 15q-23 -4 -53.5 -6t-67.5 -2l-35 -4q-8 -2 -17 -3t-22 -1 l-10 -6l-121 -19h-18l-21 -4l-32 -10q-14 0 -25 10z" />
<glyph unicode="U" horiz-adv-x="1499" d="M49 545l176 -105l31 -18q-8 25 -8 63q-5 24 -5 51.5t5 57.5v772q-19 70 -72 150q276 10 309 18l90 -4q-6 -23 -11 -50.5t-9 -62.5q-2 -4 -6 -26.5t-8 -65.5l-95 16l80 -81q-35 -138 -35 -273q0 -226 99 -442l18 -25q33 -61 105 -110q59 -33 143 -33q61 18 117 63 q181 231 181 503q0 193 -91 407q-4 27 -14.5 60.5t-26.5 74.5l-8 31h454q-80 -68 -112 -170v-857l-6 -22l6 -18l203 153q2 8 18 14q-147 -522 -694 -602q-24 -1 -48 -1q-525 0 -786 532z" />
<glyph unicode="V" horiz-adv-x="1042" d="M8 1309h330q29 0 65 -13q-23 -37 -38 -100l229 -729q205 303 260 924l-104 61q-25 12 -58 18l45 15h301l121 4q-66 -465 -155 -796t-205 -535l159 -146l11 -12h-842l111 111l57 55l53 53l-41 199l35 47h-41l-186 700l-17 43q-29 55 -84 88z" />
<glyph unicode="W" horiz-adv-x="2017" d="M139 1477q82 -63 86 -95q-197 -505 -197 -814q0 -484 484 -483q144 0 330 42q104 39 172 106q111 -176 286 -243h340q27 2 50 7t41 13l-250 180q23 16 41 31t32 29q461 415 461 953q0 123 -24 253q-179 350 -548 350q-49 0 -102 -6h-163q-4 0 -13.5 -1t-23.5 -3l-74 -10 q-41 -10 -59 -10q-35 -12 -54 -13h17q487 0 706 -344l4 -10q33 -72 37 -129q-4 -367 -129 -541q-63 -86 -102 -141t-55 -78q-16 -25 -32 -44t-32 -36q-18 -4 -36 -4q-28 0 -54 10q-133 220 -133 502q0 194 63 418l60 123q-72 -12 -117 -12l-33 -4h-377l74 -50l-4 -20v-350 l76 -47l-72 -23l6 -16q27 -180 40 -277.5t13 -116.5q-87 -200 -205 -200q-86 0 -188 106q-100 103 -100 279q0 251 201 651l125 57z" />
<glyph unicode="X" horiz-adv-x="1796" d="M8 1307q264 262 642 262q86 0 177 -13l17 -90l6 -12q10 -39 31 -84l14 -45l6 -12l10 -29q4 -14 19 -35l22 -49l43 -88l15 -27l4 -14l26 -47q41 -84 37 -90l49 -72q211 -606 625 -813l-152 -4h-561l39 137l-559 1188q-90 -8 -213 -21.5t-282 -35.5zM104 -43l277 182 l764 1348l4 61l467 -8l31 -106q-291 -100 -506 -711l-47 -72q0 -8 -37 -90l-27 -49l-6 -12l-12 -27l-45 -88l-174 -342l45 -86h-734z" />
<glyph unicode="Y" horiz-adv-x="1306" d="M6 1464l608 -22q-189 -200 -189 -377q0 -119 85 -227h53q133 181 133 508q0 88 -10 186h551q-252 -459 -418 -756q-85 -154 -85 -348q0 -182 75 -399l-737 2l80 80l12 16q193 168 246 473l-54 105q-8 27 -21 54t-32 60l-117 254q-16 35 -29.5 63.5t-23.5 51.5l-16 33 l-17 32q-10 25 -23.5 52.5t-29.5 60.5z" />
<glyph unicode="Z" horiz-adv-x="1368" d="M53 145l47 154q225 403 346 621.5t142 259.5l26 45q-83 35 -165 35q-189 0 -367 -189l203 424l20 37h770l125 -361q-662 -456 -662 -735q0 -129 142 -219q10 -10 23.5 -18.5t29.5 -18.5q217 55 402 289q3 16 3 32q0 31 -10 66l7 19l311 -199l-8 -27q-16 -14 -36 -33.5 t-42 -45.5q-178 -211 -426 -279q-138 -37 -297 -37q-131 1 -275 25q-310 54 -309 148v7z" />
<glyph unicode="[" horiz-adv-x="569" />
<glyph unicode="\" horiz-adv-x="569" />
<glyph unicode="]" horiz-adv-x="569" />
<glyph unicode="^" horiz-adv-x="960" />
<glyph unicode="_" />
<glyph unicode="`" horiz-adv-x="681" />
<glyph unicode="a" horiz-adv-x="1107" d="M35 684q47 240 295 354l92 -26l-14 80q45 36 84 108v11q0 89 -93 155q233 -69 427 -69q144 0 266 38q-114 -217 -113 -493q0 -254 96 -557h-495l55 67l43 113l-70 43l-397 190q-22 -58 -22 -114q0 -111 87 -211q52 -46 105 -46q84 0 170 115q-21 -223 -238 -223 q-36 0 -77 6q-57 2 -101.5 32t-77.5 83q-38 68 -38 180q0 73 16 164zM408 903l311 -106q1 7 1 16q0 26 -4 75q-6 66 -22 177l-10 6z" />
<glyph unicode="b" horiz-adv-x="1159" d="M41 1116l252 254q90 -2 199 -55l14 -6q134 50 208 50q42 0 64 -16q35 -20 75 -61t87 -100q33 -39 33 -83q0 -89 -137 -198q152 -31 254 -311q26 -72 26 -127q0 -157 -219 -166l-600 4l-205 -4l76 154v520q0 18 -4 36.5t-10 41.5zM512 518l4 -18l287 4q0 195 -291 239 v-225zM512 893l4 -16l51 16q103 66 103 130q0 80 -158 157v-107v-180z" />
<glyph unicode="c" horiz-adv-x="1163" d="M100 901q68 379 676 408q-29 182 -260 262q461 0 541 -500h-62q-95 14 -176 14q-129 0 -221 -36q-147 -53 -160 -109q-38 -104 -38 -187q0 -224 274 -304q84 -30 180 -31q40 0 82 6q276 72 489 326q-119 -338 -489 -457q-153 -51 -289 -51q-194 0 -352 104 q-209 141 -209 407q0 70 14 148z" />
<glyph unicode="d" horiz-adv-x="1226" d="M-6 1225l254 161l24 17q61 -2 140 -45l112 59l168 -98l29 -25l223 -178l143 -155q18 -23 35 -48.5t33 -56.5l19 -27q15 -50 15 -100q0 -120 -89 -233q-59 -106 -182 -183q-81 -16 -193 -16h-25h-421q-51 45 -101 125l-4 10q-10 42 -13 98q-2 33 -2 71q0 24 1 50v398 q-47 117 -166 176zM455 565l10 -33l22 -22q72 -22 132 -22q150 0 225 139q15 36 15 73q0 133 -191 281l-213 154v-570z" />
<glyph unicode="e" horiz-adv-x="1159" d="M27 893q29 387 635 416q-29 182 -259 262q457 0 541 -500h-63q-94 14 -175 14q-129 0 -223 -36q-147 -53 -159 -109q111 -52 231 -52q94 0 195 32v-275q-108 74 -232 74q-75 0 -156 -27l-26 -14q51 -143 223 -229q85 -30 181 -30q40 0 81 5q276 72 490 326 q-117 -338 -490 -457q-158 -52 -289 -52q-179 0 -307 97q-201 149 -201 470q0 41 3 85z" />
<glyph unicode="f" horiz-adv-x="1132" d="M33 1155l237 203l19 12q115 -27 264 -27q44 0 91 3q206 10 478 65l-73 -391l-76 96l-62 47l-348 13l-22 -5l-9 -172q43 -14 87.5 -36.5t91.5 -57.5l6 41l8 45l12 37l119 -299v-47l-63 35q-18 10 -39 18t-43 15l-17 8l-168 39v-324q12 -86 109 -176h-508q25 14 49.5 34.5 t48.5 47.5l-4 805l-176 -35z" />
<glyph unicode="g" horiz-adv-x="1247" d="M86 1038q132 263 521 263q44 0 91 -3l25 11q-43 184 -256 262q461 -4 528 -512q-86 9 -160 9q-416 0 -416 -301q0 -54 13 -116q136 -227 398 -227q65 0 137 14q-2 47 -41 117q-63 84 -162 145q-14 8 -25.5 15.5t-21.5 17.5l-12 4q-14 10 -26.5 23.5t-25.5 32.5 q106 32 211 32q99 0 197 -28q86 -102 86 -253v-20l63 58q20 14 45 41q14 14 25.5 25t17.5 22q14 8 33 37l8 10l17 12q-47 -182 -221 -301l-17 -131l-18 -57q-4 -20 -9.5 -45t-13.5 -54l-45 -127q-10 -16 -24 -47l-64 -100q-27 -31 -53 -39l41 127v18q6 6 12 41l23 115v16 q2 4 4 14.5t2 26.5l4 47v99q-236 -117 -417 -117q-231 0 -372 191q-157 215 -157 409q0 115 55 223z" />
<glyph unicode="h" horiz-adv-x="1185" d="M35 1327l213 2h346q-204 -243 -204 -401q0 -54 24 -99q131 105 304 105q40 0 83 -6l-94 391h456q-140 -217 -140 -481q0 -258 134 -562h-495l-35 5l57 114q78 225 78 325q0 80 -50 80q-12 0 -28 -5q-240 -71 -240 -222q0 -122 158 -297q-52 6 -192 8h-60q-126 0 -309 -5 q116 430 116 691q0 268 -122 357z" />
<glyph unicode="i" horiz-adv-x="585" d="M23 1208l233 174l31 23q43 -6 86 -22.5t90 -45.5v-882l4 -41q23 -57 98 -95l-10 -8l-152 -30l-43 -5l-24 -6h-43q-92 27 -109 160v559q0 45 -24 111q-45 72 -137 108z" />
<glyph unicode="j" horiz-adv-x="1122" d="M41 530q82 143 254 220q-70 -92 -90 -209q16 -16 40.5 -34t59.5 -40q95 -60 165 -60q124 0 173 187l14 514q-87 17 -180 17q-187 0 -401 -68h-17l101 106l129 189h831q-224 -221 -224 -474q0 -152 81 -315q-135 -78 -256 -239q-10 -12 -21.5 -21.5t-23.5 -17.5l-10 -13 q-119 -42 -224 -42q-238 0 -397 219z" />
<glyph unicode="k" horiz-adv-x="1081" d="M27 1397h419q-73 -168 -73 -354q0 -112 26 -230q266 133 342 447h330q-16 -23 -38.5 -48.5t-51.5 -52.5l-305 -299l-84 -65l135 43h18q-5 -23 -5 -48q0 -8 1 -16q2 -33 11 -72l51 -112q306 -539 841 -539q132 0 279 33q-198 -137 -419 -137q-465 0 -1029 608l-47 47 l37 -170l-59 -49l69 -4l17 -60l6 -30q-86 -41 -184 -43h-10q-95 0 -206 39l23 129q6 51 6 94q2 10 4 24.5t2 32.5l-6 473q0 20 -2 43t-8 49l-6 37l-60 176l-10 17zM1950 100l18 21z" />
<glyph unicode="l" horiz-adv-x="991" d="M53 1268l109 73l22 17l103 67l26 25q61 -10 125 -47l33 -10l10 -7l-49 -870q50 -11 95 -11q184 0 294 181l68 21h57v-25l-2 -412q-53 0 -100 33h-35l-16 4l-293 -4q-12 -2 -25.5 -4t-30.5 -2h-24l-64 -10h-43l-24 -6h-43l-21 -5h-164q8 35 39 78l58 117l4 18l51 531 q0 55 -25 123q-43 70 -129 106z" />
<glyph unicode="m" horiz-adv-x="1433" d="M119 1325q153 22 265 22q198 0 267 -69l60 16q107 58 254 64l14 4h391q-14 -10 -30.5 -19.5t-36.5 -17.5l-76 -47l-10 -10q80 -12 149 -76l27 -62v-184l-17 -65l-94 -37l72 -51l-56 -160l-12 -15l-63 -147q-8 -8 -23 -39l-51 -104l-16 -33v19q1 61 -9 204 q-12 168 -41 455q-47 43 -104 63h-13q-67 0 -124 -37q47 -98 96 -710h-311q54 73 54 165q0 62 -24 132q-83 423 -231 423q-41 0 -86 -32l-27 -66q23 -170 76 -322.5t141 -293.5l-288 -6q-189 229 -189 470q0 208 140 425l-58 100q-14 12 -16 41z" />
<glyph unicode="n" horiz-adv-x="1202" d="M39 1225l240 180l16 16q47 -6 91 -22.5t85 -46.5v-117l8 -43q154 147 400 182q287 -23 287 -345q0 -178 -87 -447l-94 -203q0 39 6 448q-4 18 -9 40t-13 48q-39 74 -82 97q-59 15 -115 15q-140 0 -258 -95q-52 -106 -52 -287q0 -104 17 -233q29 -55 92 -90l-270 -37 q-35 29 -98 137l-10 633l-7 32q-41 98 -147 138z" />
<glyph unicode="o" horiz-adv-x="1241" d="M49 684l156 332l106 8l-57 94l25 31l90 127l30 31q23 16 51.5 32.5t65.5 26.5l10 4h256q14 -2 31.5 -7t40.5 -13l49 -39l8 -11l281 -555q16 -56 16 -102q0 -60 -28 -102q-195 -289 -512 -289h-25q-592 6 -594 432zM369 668q104 -142 244 -142q74 0 157 39q90 52 90 135 q0 52 -35 117q-61 219 -219 219q-12 -4 -26.5 -8t-30.5 -14l-8 -6l-37 -43q-12 -27 -45 -64l-35 -59l-16 -31l-35 -86q-2 -12 -3 -26.5t-1 -30.5z" />
<glyph unicode="p" horiz-adv-x="1165" d="M74 1315l4 47h452q12 1 24 1q201 0 525 -308q61 -70 61 -151q0 -97 -85 -210q-25 -31 -56.5 -53.5t-70.5 -40.5q-45 -10 -101 -10q-176 0 -456 102q-115 -330 -269 -422l-2 70l-6 33zM387 961l410 -156q35 12 41 72q-25 39 -109 99t-229 146l-111 86z" />
<glyph unicode="q" horiz-adv-x="1343" d="M-57 555l30 -12q18 -10 40 -18.5t46 -16.5l35 -12l23 -7l33 -10q2 -4 20 -4l100 -24l31 -5l14 5l-28 49q-8 10 -16.5 24.5t-16.5 34.5l-33 55l-4 13l-22 35l-11 28l-8 17l-26 61l-13 16l-47 131l-6 31l-6 19l-10 55q-1 11 -1 22q0 29 7 64v16q174 236 512 289 q375 -4 661 -285l21 -51q2 -23 0 -46t-11 -50v-14q-8 -14 -14 -32t-12 -40q-20 -23 -23 -49l-18 -35l-6 -16q-2 -4 -5 -7.5t-5 -11.5q-2 -4 -7.5 -12t-15.5 -25l-4 -12l-60 -94l-14 -17l-59 -90q-16 -31 -49 -65q51 0 127 16l59 8l12 6l131 35h15l32 8q-240 -268 -639 -307 q-27 -1 -54 -1q-407 0 -705 331zM348 1028q6 -236 184 -461q18 -10 42 -16t53 -12q12 -2 24 -2q34 0 74 12q12 6 26.5 16t30.5 21l21 30l22 25l27 41l29 47l6 14l69 127l15 31l16 53v50q-135 178 -379 186q-150 -33 -260 -162z" />
<glyph unicode="r" horiz-adv-x="1116" d="M23 289l143 219l4 735v17l-20 32q-35 39 -56 78l33 -4l39 -6l22 -6h39q2 -2 45 -8l33 -89l41 80q20 4 42 3t44 -7h182l35 4l43 6h33l57 17h15l49 16l31 17l10 10h37q121 -68 180 -219q0 -227 -217 -379q-2 -13 -2 -23q0 -39 23 -39q16 0 44 19q-1 -21 -1 -42 q0 -350 288 -562q216 -160 560 -160q142 0 306 27l6 -17q-257 -93 -485 -93q-525 0 -897 493q-16 16 -38.5 29.5t-51.5 29.5l-47 22q-15 3 -27 3q-52 0 -52 -47q0 -11 3 -25q2 -70 70 -133zM487 780l5 -18q170 111 284 317l-6 43q-91 51 -214 51q-24 0 -50 -2z" />
<glyph unicode="s" horiz-adv-x="1056" d="M33 252q-6 37 -6 72q0 226 252 350q96 -267 318 -267q49 0 105 13q32 12 32 32q0 9 -7 21l-70 57l-14 5l-35 30l-41 33q-8 2 -41 29l-88 80l-18 10l-125 112q-10 10 -23.5 24.5t-27.5 33.5l-31 45q-22 61 -22 128q0 50 12 105q57 202 372 201q57 0 123 -6q-12 41 -49 100 q241 -88 241 -369q0 -59 -11 -126q-185 209 -312 209q-37 0 -69 -17q-23 -29 -25 -61l25 -39l129 -78l305 -191q103 -98 103 -240q0 -50 -13 -106q-55 -195 -313 -247q-65 -22 -130 -22q-134 0 -264 95q-66 44 -131 44q-76 0 -151 -60z" />
<glyph unicode="t" horiz-adv-x="1038" d="M-2 973q-29 62 -29 114q0 85 76 146q63 49 132 91t142 81q150 76 179 92h26l-57 -108l-16 -35l-5 -13l-22 -41l252 -6l26 -4l-4 37l-6 43l-6 27l6 16q254 -66 430 -332q-72 8 -134 8q-236 0 -335 -112q-97 -177 -97 -368q0 -164 71 -339h-418q87 267 87 433 q0 196 -122 251l141 119l-215 14q-57 -34 -57 -82q0 -31 23 -69q-18 6 -35 14.5t-33 22.5z" />
<glyph unicode="u" horiz-adv-x="1302" d="M6 1171l4 -12q39 10 73 10q74 0 120 -47l-6 -73q-57 -172 -57 -309q0 -384 444 -494q34 -3 66 -3q304 0 474 249q76 148 76 285q0 159 -102 304q51 94 136 94q17 0 36 -4q3 6 3 13.5t-3 17.5q-97 123 -204 123q-79 0 -163 -68q-10 -31 -13 -58.5t-1 -51.5 q15 -104 15 -192q0 -266 -138 -390q-66 -58 -119 -58q-99 0 -155 202q-35 87 -35 198q0 189 100 451h-106l-13 -6q-199 -78 -306 -124t-126 -57z" />
<glyph unicode="v" horiz-adv-x="1146" d="M-66 1309h406q16 0 31.5 -2t36.5 -9q-23 -29 -39 -75l247 -566q223 231 285 713l-115 49q-24 9 -61 15l49 10h326l133 2q-141 -713 -395 -1026l176 -113l10 -10h-913l241 168q-72 436 -262 682z" />
<glyph unicode="w" horiz-adv-x="1470" d="M14 1186l289 108q12 -393 76 -520l18 -57l31 -6q199 83 199 257q0 113 -84 263l301 121l-6 -152q35 -377 260 -565h35l106 287l-293 309q72 47 186.5 108.5t280.5 139.5l84 -475l-246 -650l-18 -16l-82 -53h-72q-90 70 -176 172q-14 20 -29.5 45.5t-29.5 56.5l-31 47 q-125 -225 -410 -327q-248 12 -309 741z" />
<glyph unicode="x" horiz-adv-x="1306" d="M-84 1151q221 179 541 179q72 0 149 -9l12 -59l7 -11q2 -23 24 -59l13 -29l6 -8l8 -20q2 -4 6 -9.5t8 -13.5l21 -37l34 -59l15 -19l2 -8l24 -35q14 -29 22.5 -44t8.5 -17l39 -49q182 -424 528 -563h-129l-471 -2l33 96l-471 817q-147 -8 -420 -37zM53 270l234 127 l585 879l5 41l391 -6l26 -72q-246 -72 -424 -494l-41 -47q0 -6 -32 -63l-21 -33l-2 -10l-14 -17l-35 -61l-92 -184l37 -60h-617z" />
<glyph unicode="y" horiz-adv-x="1140" d="M35 1329l606 -14q-187 -147 -187 -278q0 -86 81 -165h55q131 131 131 369q0 64 -10 137h549q-123 -166 -226.5 -303t-187.5 -248q-85 -111 -85 -253q0 -133 73 -293l-734 4l78 55l15 14q96 63 157.5 148.5t87.5 197.5l-55 76q-16 41 -51 84l-115 184q-18 23 -31.5 44.5 t-23.5 37.5l-17 25l-18 25q-14 35 -51 84z" />
<glyph unicode="z" horiz-adv-x="1222" d="M45 436l39 96q186 262 286.5 404.5t116.5 169.5l21 29q-68 23 -134 23q-154 0 -306 -122l168 275l16 22h637l102 -233q-499 -308 -498 -495q0 -70 70 -124q8 -6 17.5 -12t25.5 -12q182 37 332 186q2 14 1 30.5t-7 35.5l6 12l254 -129l-2 -19q-14 -8 -31.5 -20t-36.5 -31 l-73 -67l-95 32q37 -34 37 -78t-37 -98l-16 -35h-817q-16 6 -31.5 15.5t-32.5 23.5q-14 39 -14 84q0 18 2 37z" />
<glyph unicode="{" horiz-adv-x="684" />
<glyph unicode="|" horiz-adv-x="532" />
<glyph unicode="}" horiz-adv-x="684" />
<glyph unicode="~" horiz-adv-x="1196" />
<glyph unicode="&#xa1;" horiz-adv-x="681" />
<glyph unicode="&#xa2;" />
<glyph unicode="&#xa3;" />
<glyph unicode="&#xa5;" />
<glyph unicode="&#xa6;" horiz-adv-x="532" />
<glyph unicode="&#xa7;" />
<glyph unicode="&#xa8;" horiz-adv-x="681" />
<glyph unicode="&#xa9;" horiz-adv-x="1509" />
<glyph unicode="&#xaa;" horiz-adv-x="757" />
<glyph unicode="&#xab;" />
<glyph unicode="&#xac;" horiz-adv-x="1196" />
<glyph unicode="&#xad;" horiz-adv-x="1013" d="M66 375l90 4q86 4 153.5 7t116.5 3q31 0 68.5 -1t85 -3t75.5 -2q29 0 39.5 -2t18.5 -2h14h61l170 295l-71 -8q-66 -8 -114 -13.5t-77 -9.5q-59 -4 -147 -6h-119q-51 0 -86 2t-57 8l-41 8z" />
<glyph unicode="&#xae;" horiz-adv-x="1509" />
<glyph unicode="&#xaf;" horiz-adv-x="1130" />
<glyph unicode="&#xb0;" horiz-adv-x="819" />
<glyph unicode="&#xb1;" horiz-adv-x="1124" />
<glyph unicode="&#xb2;" horiz-adv-x="681" />
<glyph unicode="&#xb3;" horiz-adv-x="681" />
<glyph unicode="&#xb4;" horiz-adv-x="681" />
<glyph unicode="&#xb5;" horiz-adv-x="1179" />
<glyph unicode="&#xb6;" horiz-adv-x="1099" />
<glyph unicode="&#xb7;" horiz-adv-x="681" />
<glyph unicode="&#xb8;" horiz-adv-x="681" />
<glyph unicode="&#xb9;" horiz-adv-x="681" />
<glyph unicode="&#xba;" horiz-adv-x="747" />
<glyph unicode="&#xbb;" />
<glyph unicode="&#xbc;" horiz-adv-x="1708" />
<glyph unicode="&#xbd;" horiz-adv-x="1708" />
<glyph unicode="&#xbe;" horiz-adv-x="1708" />
<glyph unicode="&#xbf;" horiz-adv-x="1251" />
<glyph unicode="&#xc0;" horiz-adv-x="1366" />
<glyph unicode="&#xc1;" horiz-adv-x="1366" />
<glyph unicode="&#xc2;" horiz-adv-x="1366" />
<glyph unicode="&#xc3;" horiz-adv-x="1366" />
<glyph unicode="&#xc4;" horiz-adv-x="1366" />
<glyph unicode="&#xc5;" horiz-adv-x="1366" />
<glyph unicode="&#xc6;" horiz-adv-x="2048" />
<glyph unicode="&#xc7;" horiz-adv-x="1478" />
<glyph unicode="&#xc8;" horiz-adv-x="1366" />
<glyph unicode="&#xc9;" horiz-adv-x="1366" />
<glyph unicode="&#xca;" horiz-adv-x="1366" />
<glyph unicode="&#xcb;" horiz-adv-x="1366" />
<glyph unicode="&#xcc;" horiz-adv-x="569" />
<glyph unicode="&#xcd;" horiz-adv-x="569" />
<glyph unicode="&#xce;" horiz-adv-x="569" />
<glyph unicode="&#xcf;" horiz-adv-x="569" />
<glyph unicode="&#xd0;" horiz-adv-x="1478" />
<glyph unicode="&#xd1;" horiz-adv-x="1478" />
<glyph unicode="&#xd2;" horiz-adv-x="1593" />
<glyph unicode="&#xd3;" horiz-adv-x="1593" />
<glyph unicode="&#xd4;" horiz-adv-x="1593" />
<glyph unicode="&#xd5;" horiz-adv-x="1593" />
<glyph unicode="&#xd6;" horiz-adv-x="1593" />
<glyph unicode="&#xd7;" horiz-adv-x="1196" />
<glyph unicode="&#xd8;" horiz-adv-x="1593" />
<glyph unicode="&#xd9;" horiz-adv-x="1478" />
<glyph unicode="&#xda;" horiz-adv-x="1478" />
<glyph unicode="&#xdb;" horiz-adv-x="1478" />
<glyph unicode="&#xdc;" horiz-adv-x="1478" />
<glyph unicode="&#xdd;" horiz-adv-x="1366" />
<glyph unicode="&#xde;" horiz-adv-x="1366" />
<glyph unicode="&#xdf;" horiz-adv-x="1251" />
<glyph unicode="&#xe0;" />
<glyph unicode="&#xe1;" />
<glyph unicode="&#xe2;" />
<glyph unicode="&#xe3;" />
<glyph unicode="&#xe4;" />
<glyph unicode="&#xe5;" />
<glyph unicode="&#xe6;" horiz-adv-x="1820" />
<glyph unicode="&#xe7;" horiz-adv-x="1024" />
<glyph unicode="&#xe8;" />
<glyph unicode="&#xe9;" />
<glyph unicode="&#xea;" />
<glyph unicode="&#xeb;" />
<glyph unicode="&#xec;" horiz-adv-x="569" />
<glyph unicode="&#xed;" horiz-adv-x="569" />
<glyph unicode="&#xee;" horiz-adv-x="569" />
<glyph unicode="&#xef;" horiz-adv-x="569" />
<glyph unicode="&#xf0;" />
<glyph unicode="&#xf1;" />
<glyph unicode="&#xf2;" />
<glyph unicode="&#xf3;" />
<glyph unicode="&#xf4;" />
<glyph unicode="&#xf5;" />
<glyph unicode="&#xf6;" />
<glyph unicode="&#xf7;" horiz-adv-x="1124" />
<glyph unicode="&#xf8;" horiz-adv-x="1251" />
<glyph unicode="&#xf9;" />
<glyph unicode="&#xfa;" />
<glyph unicode="&#xfb;" />
<glyph unicode="&#xfc;" />
<glyph unicode="&#xfd;" horiz-adv-x="1024" />
<glyph unicode="&#xfe;" />
<glyph unicode="&#xff;" horiz-adv-x="1024" />
<glyph unicode="&#x152;" horiz-adv-x="2048" />
<glyph unicode="&#x153;" horiz-adv-x="1933" />
<glyph unicode="&#x178;" horiz-adv-x="1366" />
<glyph unicode="&#x2c6;" horiz-adv-x="681" />
<glyph unicode="&#x2dc;" horiz-adv-x="681" />
<glyph unicode="&#x2000;" horiz-adv-x="917" />
<glyph unicode="&#x2001;" horiz-adv-x="1835" />
<glyph unicode="&#x2002;" horiz-adv-x="917" />
<glyph unicode="&#x2003;" horiz-adv-x="1835" />
<glyph unicode="&#x2004;" horiz-adv-x="611" />
<glyph unicode="&#x2005;" horiz-adv-x="458" />
<glyph unicode="&#x2006;" horiz-adv-x="305" />
<glyph unicode="&#x2007;" horiz-adv-x="305" />
<glyph unicode="&#x2008;" horiz-adv-x="229" />
<glyph unicode="&#x2009;" horiz-adv-x="367" />
<glyph unicode="&#x200a;" horiz-adv-x="101" />
<glyph unicode="&#x2010;" horiz-adv-x="1013" d="M66 375l90 4q86 4 153.5 7t116.5 3q31 0 68.5 -1t85 -3t75.5 -2q29 0 39.5 -2t18.5 -2h14h61l170 295l-71 -8q-66 -8 -114 -13.5t-77 -9.5q-59 -4 -147 -6h-119q-51 0 -86 2t-57 8l-41 8z" />
<glyph unicode="&#x2011;" horiz-adv-x="1013" d="M66 375l90 4q86 4 153.5 7t116.5 3q31 0 68.5 -1t85 -3t75.5 -2q29 0 39.5 -2t18.5 -2h14h61l170 295l-71 -8q-66 -8 -114 -13.5t-77 -9.5q-59 -4 -147 -6h-119q-51 0 -86 2t-57 8l-41 8z" />
<glyph unicode="&#x2012;" horiz-adv-x="1013" d="M66 375l90 4q86 4 153.5 7t116.5 3q31 0 68.5 -1t85 -3t75.5 -2q29 0 39.5 -2t18.5 -2h14h61l170 295l-71 -8q-66 -8 -114 -13.5t-77 -9.5q-59 -4 -147 -6h-119q-51 0 -86 2t-57 8l-41 8z" />
<glyph unicode="&#x2013;" />
<glyph unicode="&#x2014;" horiz-adv-x="2048" />
<glyph unicode="&#x2018;" horiz-adv-x="454" />
<glyph unicode="&#x2019;" horiz-adv-x="454" />
<glyph unicode="&#x201a;" horiz-adv-x="454" />
<glyph unicode="&#x201c;" horiz-adv-x="681" />
<glyph unicode="&#x201d;" horiz-adv-x="681" />
<glyph unicode="&#x201e;" horiz-adv-x="681" />
<glyph unicode="&#x2022;" horiz-adv-x="716" />
<glyph unicode="&#x2026;" horiz-adv-x="2048" />
<glyph unicode="&#x202f;" horiz-adv-x="367" />
<glyph unicode="&#x2039;" horiz-adv-x="681" />
<glyph unicode="&#x203a;" horiz-adv-x="681" />
<glyph unicode="&#x205f;" horiz-adv-x="458" />
<glyph unicode="&#x20ac;" />
<glyph unicode="&#x2122;" horiz-adv-x="2048" />
<glyph unicode="&#x25fc;" horiz-adv-x="1331" d="M0 0v1331h1331v-1331h-1331z" />
<glyph unicode="&#xfb01;" horiz-adv-x="1024" />
<glyph unicode="&#xfb02;" horiz-adv-x="1024" />
</font>
</defs>
</svg>
